Coordinates
version=1
nRows=10
nColumns=40
inDegrees=yes

Units are S.I. units (second, meters, Newtons, ...)
Angles are in degrees.

endheader
time	pelvis_tilt	pelvis_list	pelvis_rotation	pelvis_tx	pelvis_ty	pelvis_tz	hip_flexion_r	hip_adduction_r	hip_rotation_r	knee_angle_r	knee_angle_r_beta	ankle_angle_r	subtalar_angle_r	mtp_angle_r	hip_flexion_l	hip_adduction_l	hip_rotation_l	knee_angle_l	knee_angle_l_beta	ankle_angle_l	subtalar_angle_l	mtp_angle_l	lumbar_extension	lumbar_bending	lumbar_rotation	arm_flex_r	arm_add_r	arm_rot_r	elbow_flex_r	pro_sup_r	wrist_flex_r	wrist_dev_r	arm_flex_l	arm_add_l	arm_rot_l	elbow_flex_l	pro_sup_l	wrist_flex_l	wrist_dev_l
      2.43000000	     -0.49205162	      5.77903423	      1.22851826	      0.49488454	      0.95949328	     -1.10910318	     22.41069138	    -17.56689751	    -16.61824908	    -45.38189887	     -0.79206356	      4.78276201	    -14.11597101	     13.73683339	      0.89537034	     -8.91337987	     10.00608334	    -10.70478106	     -0.18683368	      5.47725634	      4.66164965	     -3.05349058	     -3.37895219	     -6.03489900	     -1.75216141	      3.00177628	     -9.35880920	    -12.92624279	     23.90575429	     89.95437384	      0.00000000	      0.00000000	      9.00039657	     13.94714291	      5.31158913	     21.85929816	     89.95437384	      0.00000000	      0.00000000
      2.44000000	      0.04685111	      5.04484019	      1.38222276	      0.50120819	      0.96027012	     -1.10901526	     22.17382185	    -16.43854462	    -16.87941995	    -43.48469518	     -0.75895111	      4.63739705	    -13.93602375	     13.88370819	     -0.17841596	     -8.06550328	      9.81549625	    -10.65816720	     -0.18602011	      5.90203687	      4.47210518	     -3.60723139	     -4.11985301	     -5.23582698	     -1.87296553	      3.16333070	     -9.22620571	    -13.96863381	     23.80389929	     89.95437384	      0.00000000	      0.00000000	      9.82776674	     14.20630158	      3.31276926	     22.66964105	     89.95437384	      0.00000000	      0.00000000
      2.45000000	     -0.18792748	      5.11639420	      1.45705984	      0.50760194	      0.95952574	     -1.10952307	     23.17057969	    -16.39824973	    -16.93491625	    -42.14674591	     -0.73559949	      4.71255399	    -13.53980276	     13.74031877	     -0.38794593	     -8.17764619	     10.02279965	    -10.60617622	     -0.18511270	      6.16286113	      4.31451102	     -3.68481053	     -3.92937793	     -5.31152535	     -2.08961246	      3.12417611	     -9.20689151	    -13.91699185	     23.88754151	     89.95437384	      0.00000000	      0.00000000	     10.45350651	     14.24363766	      3.14127352	     23.23675899	     89.95437384	      0.00000000	      0.00000000
      2.46000000	     -0.38652270	      5.09880730	      1.52255974	      0.51386143	      0.95885068	     -1.10983671	     24.03135299	    -16.17930743	    -16.83970999	    -40.64965637	     -0.70947034	      4.67426143	    -12.98180371	     13.60334264	     -0.63331889	     -8.17899710	     10.09151923	    -10.55942190	     -0.18429668	      6.42209966	      4.13814708	     -3.76865368	     -3.79768026	     -5.28836941	     -2.26617017	      3.09780026	     -9.15530053	    -13.89394141	     23.95210079	     89.95437384	      0.00000000	      0.00000000	     11.07901016	     14.28397046	      2.85706880	     23.88577088	     89.95437384	      0.00000000	      0.00000000
      2.47000000	      0.15358355	      4.42006108	      1.56279554	      0.52034207	      0.95946567	     -1.10937040	     23.69541919	    -15.06249236	    -16.92556914	    -38.59247767	     -0.67356580	      4.35786555	    -12.26771345	     13.64793049	     -1.81491433	     -7.36389856	     10.05395800	    -10.29331476	     -0.17965223	      6.72560019	      3.76977231	     -4.22531878	     -4.50601616	     -4.54604791	     -2.33622973	      3.30163941	     -9.11484026	    -14.38513956	     23.71447619	     89.95437384	      0.00000000	      0.00000000	     11.72295779	     14.48443526	      1.40206695	     24.76465758	     89.95437384	      0.00000000	      0.00000000
      2.48000000	     -0.07340552	      4.57113630	      1.67793824	      0.52677875	      0.95857213	     -1.10978042	     24.55188858	    -15.11036035	    -16.97420305	    -37.17086001	     -0.64875389	      4.45065001	    -11.83685764	     13.49240967	     -2.01535914	     -7.53208772	     10.24844745	    -10.30058577	     -0.17977914	      6.93095597	      3.57640747	     -4.30949353	     -4.34524446	     -4.70243953	     -2.54413967	      3.17936057	     -9.06623055	    -14.37553907	     23.85295171	     89.95437384	      0.00000000	      0.00000000	     12.28028884	     14.49027569	      1.23837169	     25.36324922	     89.95437384	      0.00000000	      0.00000000
      2.49000000	      0.45066184	      4.09846135	      1.83648543	      0.53358605	      0.95902921	     -1.10960714	     24.08431097	    -14.34530687	    -17.27246174	    -35.02703999	     -0.61133718	      4.38325480	    -10.64755504	     13.37951550	     -3.14705677	     -6.88138667	     10.54223469	    -10.11557074	     -0.17655002	      6.92458191	      2.54116457	     -5.18426965	     -5.03141473	     -4.15826476	     -2.70169150	      3.19170738	     -8.99102346	    -14.94059467	     23.89709264	     89.95437384	      0.00000000	      0.00000000	     12.84788824	     14.63044044	      0.10178855	     26.22512609	     89.95437384	      0.00000000	      0.00000000
      2.50000000	      0.15134294	      4.22552688	      1.96911531	      0.53992268	      0.95791388	     -1.10981621	     24.94823318	    -14.34002942	    -17.23071630	    -33.58725636	     -0.58620821	      4.40678793	    -10.14786441	     13.23778062	     -3.27756005	     -7.01161128	     10.68453595	    -10.09822330	     -0.17624725	      7.18298270	      2.37325944	     -5.28831155	     -4.78507264	     -4.29407031	     -2.89634056	      3.12227945	     -8.96070614	    -14.87269941	     23.87589040	     89.95437384	      0.00000000	      0.00000000	     13.34252176	     14.59907975	     -0.05620495	     26.77359724	     89.95437384	      0.00000000	      0.00000000
      2.51000000	      0.37965497	      3.78678214	      2.23397327	      0.54643694	      0.95776510	     -1.10972523	     24.76841788	    -13.65226777	    -17.42405627	    -31.46645832	     -0.54919330	      4.21617056	     -8.77342574	     12.89713666	     -3.96375686	     -6.38809492	     10.86617949	    -10.11636759	     -0.17656392	      7.27531830	      1.49399236	     -6.27825078	     -5.16579563	     -3.78089229	     -3.15175464	      3.19144787	     -8.92592571	    -15.25291333	     23.74403553	     89.95437384	      0.00000000	      0.00000000	     13.82500534	     14.64024257	     -0.72039213	     27.60948055	     89.95437384	      0.00000000	      0.00000000
      2.52000000	      0.08761502	      3.79516238	      2.37053411	      0.55274431	      0.95668500	     -1.10962169	     25.44445906	    -13.45649779	    -17.35525763	    -29.73521817	     -0.51897746	      4.13232711	     -7.90088308	     12.73567552	     -4.11488686	     -6.35580217	     10.82870750	    -10.05700344	     -0.17552782	      7.46101345	      1.22523004	     -6.52377623	     -4.94272677	     -3.79194687	     -3.35469675	      3.19446694	     -8.85893250	    -15.28232199	     23.61472665	     89.95437384	      0.00000000	      0.00000000	     14.18996944	     14.66405904	     -1.04128740	     28.24606513	     89.95437384	      0.00000000	      0.00000000
